<svg width="737" height="69" viewBox="0 0 737 69" fill="none" xmlns="http://www.w3.org/2000/svg">
<line y1="32" x2="276" y2="32" stroke="#EAB156" stroke-width="4"/>
<line x1="461" y1="32" x2="737" y2="32" stroke="#EAB156" stroke-width="4"/>
<path d="M366.055 1.95463C366.643 -0.651545 370.357 -0.651541 370.945 1.95463L374.057 15.7318C374.439 17.4209 376.377 18.2237 377.841 17.2992L389.784 9.75779C392.043 8.33121 394.669 10.957 393.242 13.2161L385.701 25.1586C384.776 26.6227 385.579 28.561 387.268 28.9426L401.045 32.0546C403.652 32.6433 403.652 36.3567 401.045 36.9454L387.268 40.0574C385.579 40.439 384.776 42.3773 385.701 43.8414L393.242 55.7839C394.669 58.043 392.043 60.6688 389.784 59.2422L377.841 51.7008C376.377 50.7763 374.439 51.5791 374.057 53.2682L370.945 67.0454C370.357 69.6515 366.643 69.6515 366.055 67.0454L362.943 53.2682C362.561 51.5791 360.623 50.7763 359.159 51.7008L347.216 59.2422C344.957 60.6688 342.331 58.043 343.758 55.7839L351.299 43.8414C352.224 42.3773 351.421 40.439 349.732 40.0574L335.955 36.9454C333.348 36.3567 333.348 32.6433 335.955 32.0546L349.732 28.9426C351.421 28.561 352.224 26.6227 351.299 25.1586L343.758 13.2161C342.331 10.957 344.957 8.33122 347.216 9.75779L359.159 17.2992C360.623 18.2237 362.561 17.4209 362.943 15.7318L366.055 1.95463Z" fill="#EAB156"/>
</svg>
