<svg width="592" height="216" viewBox="0 0 592 216" fill="none" xmlns="http://www.w3.org/2000/svg">
<path d="M464.424 121.612C452.662 110.4 431.492 109.095 416.099 107.67C391.528 105.387 373.27 109.624 349.764 115.654C337.05 118.913 297.054 113.612 322.377 133.143C336.794 144.267 361.973 146.221 379.599 148.207C397.921 150.273 414.602 143.586 432.356 144.323C452.814 144.627 470.896 155.566 470.056 177.837C469.92 181.32 464.336 200.804 468.68 201.749C475.385 203.207 478.585 186.838 479.745 182.93C485.866 162.301 480.225 136.683 464.416 121.612H464.424Z" fill="white" fill-opacity="0.1"/>
<path d="M217.254 147.926C217.798 147.926 218.142 147.926 218.326 147.926C218.094 147.926 217.678 147.926 217.254 147.926Z" fill="white" fill-opacity="0.1"/>
<path d="M266.283 120.651C255.346 120.491 243.529 115.534 232.896 113.067C195.428 104.378 153.343 99.4933 124.116 130.253C111.123 143.922 106.138 166.714 114.971 183.819C117.564 188.84 120.884 193.757 125.564 197.032C129.037 198.161 130.549 196.848 130.101 193.076C126.989 185.741 123.372 179.174 123.916 170.854C126.781 127.314 191.067 147.822 217.246 147.918C239.016 147.999 258.538 143.674 275.564 128.955C285.021 120.779 272.628 120.731 266.275 120.643L266.283 120.651Z" fill="white" fill-opacity="0.1"/>
<path d="M217.254 147.926C216.71 147.926 216.166 147.926 216.03 147.926C216.118 147.926 216.47 147.926 217.254 147.926Z" fill="white" fill-opacity="0.1"/>
<path d="M584.932 30.0069C583.772 39.4004 577.227 45.1022 569.858 50.2594C552.545 62.3757 529.07 61.7991 508.972 61.727C475.025 61.5989 437.453 67.6531 409.898 89.6193C402.561 95.4653 423.715 93.3751 424.195 93.3831C433.532 93.5033 442.589 95.4412 451.798 95.5694C471.888 95.8416 491.882 97.4753 512.116 97.6755C547.008 98.0198 591.189 70.7122 591.997 32.5134C592.157 24.8096 586.436 17.8185 584.932 30.0149V30.0069Z" fill="white" fill-opacity="0.1"/>
<path d="M508.972 61.719C509.396 61.719 509.684 61.719 509.924 61.719C508.94 61.719 507.244 61.711 508.972 61.719Z" fill="white" fill-opacity="0.1"/>
<path d="M162.032 94.5283C162.032 94.5283 162.04 94.5283 162.048 94.5283C163.08 94.5363 187.611 95.9377 180.77 88.8505C174.962 82.8364 164.504 78.2478 156.848 75.2447C134.837 66.62 114.739 65.1225 91.4089 64.8422C72.3749 64.618 44.516 66.7481 28.1303 55.0643C21.0816 50.0352 12.3767 44.4455 10.5605 35.2842C10.2885 33.9309 9.4164 17.9306 3.23976 24.5213C-7.20132 35.6686 10.2565 64.634 18.0893 73.2187C29.0904 85.2789 43.4039 91.8616 58.9815 96.226C93.4171 105.876 127.421 94.4402 161.992 94.5203H162.024L162.032 94.5283Z" fill="white" fill-opacity="0.1"/>
<path d="M361.733 102.488C377.575 97.8196 390.928 91.7335 405.001 83.1888C428.86 68.7181 458.975 40.2413 462.967 10.4831C462.943 10.8755 462.967 10.8354 463.143 9.2178C463.199 -7.16682 450.854 15.6483 447.83 18.8516C435.74 31.6566 420.459 32.2972 405.817 40.0971C389.032 49.0342 374.766 52.5097 364.517 69.9594C358.085 80.9145 349.02 94.1039 339.179 102.264C326.641 112.659 359.677 103.089 361.733 102.48V102.488Z" fill="white" fill-opacity="0.1"/>
<path d="M185.763 81.2268C200.428 91.0528 218.366 99.0449 235.456 103.417C239.128 104.354 260.442 111.433 250.825 101.367C228.111 77.5591 215.014 54.4717 183.466 41.0981C168.945 34.9399 150.279 29.9909 140.974 16.1688C140.318 15.1999 129.301 -7.58324 128.277 4.90142C128.261 4.95748 128.237 5.18971 128.221 5.74227C135.317 38.7117 158.448 62.9443 185.763 81.2428V81.2268Z" fill="white" fill-opacity="0.1"/>
<path d="M311.392 68.606C307.463 56.6739 320.377 34.8278 302.959 44.8379C292.686 50.7399 295.286 45.1663 285.493 47.1523C279.78 48.3054 281.837 68.7181 279.588 73.9875C273.34 88.6423 274.036 114.557 295.214 115.413C293.414 115.373 289.165 115.349 295.894 115.454C320.889 111.978 317.176 86.1758 311.4 68.614L311.392 68.606Z" fill="white" fill-opacity="0.1"/>
<path d="M143.606 176.411C137.886 183.683 142.63 194.285 150.983 196.672C159.616 199.138 154.415 205.577 147.823 205.825C147.383 205.841 125.684 202.502 131.437 208.668C135.405 212.92 145.831 216.292 151.519 215.035C167.345 214.442 182.49 205.577 178.29 187.094C174.69 171.246 155.48 161.3 143.598 176.403L143.606 176.411Z" fill="white" fill-opacity="0.1"/>
<path d="M437.845 202.566C432.876 199.619 452.134 192.003 452.206 184.003C452.422 160.419 423.203 166.529 416.827 183.282C411.074 198.41 422.459 215.915 438.645 215.963C441.941 216.396 457.215 212.96 454.567 207.155C453.55 204.928 441.293 204.608 437.837 202.558L437.845 202.566Z" fill="white" fill-opacity="0.1"/>
<path d="M266.531 102.689C269.571 100.663 264.347 86.1518 265.587 81.9556C267.235 76.3979 268.771 70.7602 271.388 65.5549C274.772 58.8281 275.084 48.6898 268.795 43.5166C265.571 40.8659 258.178 37.5025 257.162 44.6778C255.754 54.6318 246.169 60.4858 248.089 71.585C248.169 76.9185 256.842 109.159 266.523 102.689H266.531Z" fill="white" fill-opacity="0.1"/>
<path d="M327.121 104.018C337.314 97.9638 342.963 81.6833 342.587 70.584C343.643 63.3927 335.346 36.2612 325.457 42.8439C312.184 51.6688 319.224 63.5449 323.041 75.3649C324.649 80.3299 323.617 106.092 327.113 104.018H327.121Z" fill="white" fill-opacity="0.1"/>
<path d="M554.969 19.6043C563.25 16.5052 563.562 10.8595 573.827 13.5342C574.883 13.6062 574.843 13.5822 574.547 13.5342C582.268 13.6223 577.443 5.47801 574.083 2.95545C567.242 -2.18577 558.633 -0.103654 552.641 5.24577C549.472 8.07264 546.712 22.6875 554.969 19.5963V19.6043Z" fill="white" fill-opacity="0.1"/>
<path d="M35.4511 21.0938C45.3401 31.0399 48.0764 8.3289 30.3626 5.50203C30.8666 5.54207 30.9706 5.53406 29.4025 5.35788C28.8504 5.32585 28.7784 5.33386 28.9304 5.35788C25.114 5.42195 18.0573 8.60117 19.2574 13.366C20.3135 17.5623 32.0827 17.7144 35.4511 21.1018V21.0938Z" fill="white" fill-opacity="0.1"/>
<path d="M37 159.414V156.689C41.8633 156.455 45.4961 156.016 47.8984 155.371C50.3008 154.668 51.8828 153.467 52.6445 151.768C53.4648 150.01 53.875 147.49 53.875 144.209V71.7871C53.875 68.4473 53.4648 65.9277 52.6445 64.2285C51.8828 62.5293 50.3008 61.3574 47.8984 60.7129C45.4961 60.0098 41.8633 59.541 37 59.3066V56.6699C39.2266 56.7285 42.2148 56.7871 45.9648 56.8457C49.7148 56.8457 54.2266 56.8457 59.5 56.8457C65.0664 56.8457 70.3984 56.8164 75.4961 56.7578C80.5938 56.6992 84.168 56.6699 86.2188 56.6699C99.0508 56.6699 109.1 58.8379 116.365 63.1738C123.631 67.5098 127.264 73.6621 127.264 81.6309C127.264 88.8379 124.393 94.8438 118.65 99.6484C112.967 104.395 105.262 107.471 95.5352 108.877C100.984 109.404 105.379 110.43 108.719 111.953C112.117 113.418 114.812 115.615 116.805 118.545C118.797 121.475 120.408 125.4 121.639 130.322L126.736 150.098C127.381 152.5 128.523 154.082 130.164 154.844C131.863 155.547 133.973 155.957 136.492 156.074C138.367 156.133 140.096 155.664 141.678 154.668C143.26 153.672 144.783 152.383 146.248 150.801L147.918 153.174C145.223 156.162 142.557 158.271 139.92 159.502C137.283 160.791 134.09 161.436 130.34 161.436C125.711 161.436 121.756 160.117 118.475 157.48C115.193 154.844 112.879 150.947 111.531 145.791L107.225 129.707C105.408 122.852 102.83 117.9 99.4902 114.854C96.1504 111.807 91.1113 110.283 84.373 110.283H67.498V144.209C67.498 147.607 67.8789 150.186 68.6406 151.943C69.4609 153.643 71.0723 154.814 73.4746 155.459C75.877 156.045 79.5098 156.455 84.373 156.689V159.414C82.1465 159.297 79.0117 159.209 74.9688 159.15C70.9258 159.033 66.1211 158.975 60.5547 158.975C55.0469 158.975 50.2715 159.033 46.2285 159.15C42.2441 159.209 39.168 159.297 37 159.414ZM82 59.3945H67.498V107.646H82.4395C102.654 107.646 112.762 99.4434 112.762 83.0371C112.762 74.6582 110.242 68.623 105.203 64.9316C100.223 61.2402 92.4883 59.3945 82 59.3945Z" fill="#EAB156"/>
<path d="M188.172 161.436C181.434 161.436 175.545 159.824 170.506 156.602C165.467 153.379 161.541 148.896 158.729 143.154C155.916 137.412 154.51 130.82 154.51 123.379C154.51 111.133 157.586 101.289 163.738 93.8477C169.949 86.3477 178.475 82.5977 189.314 82.5977C195.291 82.5977 200.477 84.1797 204.871 87.3438C209.324 90.5078 212.752 94.6094 215.154 99.6484C217.557 104.688 218.699 109.99 218.582 115.557H168.66C168.602 116.201 168.572 117.109 168.572 118.281C168.572 131.348 170.652 141.016 174.812 147.285C179.031 153.555 184.979 156.689 192.654 156.689C197.576 156.689 202.117 155.518 206.277 153.174C210.438 150.83 213.719 146.992 216.121 141.66L218.494 144.561C216.209 150.186 212.371 154.404 206.98 157.217C201.648 160.029 195.379 161.436 188.172 161.436ZM188.436 85.4102C185.271 85.4102 182.283 86.7578 179.471 89.4531C176.717 92.0898 174.373 95.5176 172.439 99.7363C170.564 103.896 169.363 108.203 168.836 112.656H204.695C204.871 102.578 203.611 95.5176 200.916 91.4746C198.279 87.4316 194.119 85.4102 188.436 85.4102Z" fill="#EAB156"/>
<path d="M231.414 159.414V156.689C236.57 156.748 240.115 155.957 242.049 154.316C244.041 152.676 245.037 149.98 245.037 146.23V100.088C245.037 95.752 244.012 92.6465 241.961 90.7715C239.91 88.8379 236.395 87.6953 231.414 87.3438V84.6191C233.113 84.8535 234.842 85 236.6 85.0586C238.416 85.0586 240.232 85.0586 242.049 85.0586C244.861 85.0586 247.615 84.9121 250.311 84.6191C253.064 84.3262 255.672 83.7988 258.133 83.0371V98.8574C260.535 93.2324 263.846 89.1309 268.064 86.5527C272.283 83.916 276.941 82.5977 282.039 82.5977C289.305 82.5977 294.9 85.4395 298.826 91.123C302.752 96.748 304.715 104.893 304.715 115.557V146.23C304.715 150.156 305.682 152.91 307.615 154.492C309.607 156.016 313.182 156.748 318.338 156.689V159.414C316.404 159.297 313.504 159.18 309.637 159.062C305.77 158.887 301.99 158.799 298.299 158.799C294.9 158.799 291.619 158.887 288.455 159.062C285.291 159.18 282.889 159.297 281.248 159.414V156.689C285.291 156.748 288.016 156.016 289.422 154.492C290.887 152.91 291.619 150.156 291.619 146.23V108.438C291.619 101.113 290.359 95.752 287.84 92.3535C285.379 88.9551 281.658 87.2559 276.678 87.2559C269.002 87.2559 262.82 93.2324 258.133 105.186V146.23C258.133 149.98 258.865 152.676 260.33 154.316C261.854 155.957 264.578 156.748 268.504 156.689V159.414C266.277 159.297 263.699 159.18 260.77 159.062C257.84 158.887 254.734 158.799 251.453 158.799C247.879 158.799 244.334 158.857 240.818 158.975C237.303 159.033 234.168 159.18 231.414 159.414Z" fill="#EAB156"/>
<path d="M321.414 159.414V156.689C325.926 156.221 329.646 155.166 332.576 153.525C335.506 151.885 337.908 148.984 339.783 144.824L380.213 55H384.607L427.146 146.494C428.67 149.717 430.779 152.148 433.475 153.789C436.17 155.43 439.861 156.396 444.549 156.689V159.414C441.385 159.297 437.928 159.209 434.178 159.15C430.486 159.033 426.766 158.975 423.016 158.975C417.332 158.975 412.234 159.033 407.723 159.15C403.27 159.209 399.754 159.297 397.176 159.414V156.689C405.379 156.572 410.418 155.605 412.293 153.789C414.168 151.973 413.992 148.662 411.766 143.857L401.131 120.918H353.582L351.121 126.191C346.375 136.328 345.027 144.004 347.078 149.219C349.188 154.375 354.168 156.865 362.02 156.689V159.414C359.324 159.355 355.867 159.268 351.648 159.15C347.488 159.033 343.211 158.975 338.816 158.975C336.355 158.975 333.982 159.033 331.697 159.15C329.471 159.209 326.043 159.297 321.414 159.414ZM354.9 118.193H399.988L377.928 66.7773L354.9 118.193Z" fill="#EAB156"/>
<path d="M449.383 159.414V156.689C453.895 156.572 456.941 155.811 458.523 154.404C460.164 152.998 460.984 150.273 460.984 146.23V100.088C460.984 95.752 460.105 92.6465 458.348 90.7715C456.59 88.8379 453.602 87.6953 449.383 87.3438V84.6191C451.434 84.8535 453.25 85 454.832 85.0586C456.473 85.0586 458.055 85.0586 459.578 85.0586C461.805 85.0586 464.178 84.9121 466.697 84.6191C469.217 84.3262 471.678 83.7988 474.08 83.0371V92.793C475.896 89.3359 478.592 86.7871 482.166 85.1465C485.799 83.4473 489.344 82.5977 492.801 82.5977C496.434 82.5977 499.334 83.8867 501.502 86.4648C503.67 88.9844 504.754 92.2656 504.754 96.3086C504.754 99.8828 504.139 102.842 502.908 105.186C501.678 107.471 500.037 108.613 497.986 108.613C496.053 108.613 494.471 108.057 493.24 106.943C492.068 105.771 491.482 104.189 491.482 102.197C491.482 99.4434 491.893 97.2168 492.713 95.5176C493.533 93.8184 493.943 91.9434 493.943 89.8926C493.943 88.0762 492.508 87.168 489.637 87.168C486.707 87.168 483.602 88.0469 480.32 89.8047C477.098 91.5625 475.018 94.8438 474.08 99.6484V145.176C474.08 149.336 475.193 152.266 477.42 153.965C479.705 155.664 483.602 156.572 489.109 156.689V159.414C486.941 159.297 483.836 159.18 479.793 159.062C475.809 158.887 471.824 158.799 467.84 158.799C464.09 158.799 460.516 158.887 457.117 159.062C453.719 159.18 451.141 159.297 449.383 159.414Z" fill="#EAB156"/>
<path d="M537.625 161.436C531.648 161.436 527.371 159.678 524.793 156.162C522.215 152.646 520.926 146.904 520.926 138.936V87.5195H508.885V84.7949H520.926V62.6465C523.211 62.7051 525.467 62.5293 527.693 62.1191C529.92 61.6504 532.029 61.123 534.021 60.5371V84.7949H551.512V87.5195H534.021V148.516C534.021 151.387 534.549 153.525 535.604 154.932C536.717 156.279 538.592 156.953 541.229 156.953C543.807 156.953 546.092 155.43 548.084 152.383C550.076 149.336 551.453 145.527 552.215 140.957L554.236 141.572C552.01 154.814 546.473 161.436 537.625 161.436Z" fill="#EAB156"/>
</svg>
